<?xml version="1.0" encoding="utf-8"?>
<!-- Generator: Adobe Illustrator 19.0.0, SVG Export Plug-In . SVG Version: 6.00 Build 0)  -->
<svg version="1.1" xmlns="http://www.w3.org/2000/svg" xmlns:xlink="http://www.w3.org/1999/xlink" x="0px" y="0px"
	 viewBox="0 0 960 560" style="enable-background:new 0 0 960 560;" xml:space="preserve">
<style type="text/css">
	.st0{fill:none;stroke:#000000;stroke-miterlimit:10;}
	.st1{stroke:#000000;stroke-width:0.25;stroke-miterlimit:10;}
</style>
<g id="Layer_1">
</g>
<g id="Layer_2">
	<path id="XMLID_13_" class="st0" d="M531,174.5"/>
	<rect id="XMLID_9_" x="469.3" y="218.2" width="9.6" height="148.2"/>
	<rect id="XMLID_1_" x="489.8" y="182.1" width="9.6" height="184.3"/>
	<rect id="XMLID_3_" x="499.4" y="356.7" class="st1" width="43.6" height="9.7"/>
	<rect id="XMLID_4_" x="499.4" y="182.1" class="st1" width="43.3" height="9.7"/>
	<rect id="XMLID_5_" x="499.4" y="289.7" width="43.3" height="9.7"/>
	<rect id="XMLID_6_" x="499.4" y="249" width="43.6" height="10.1"/>
	<line id="XMLID_12_" class="st0" x1="401" y1="165.5" x2="401" y2="165.5"/>
	<line id="XMLID_15_" class="st0" x1="569" y1="200.6" x2="569" y2="200.6"/>
	<line id="XMLID_17_" class="st0" x1="593.1" y1="315" x2="593.1" y2="315"/>
	<path id="XMLID_14_" d="M583.9,273.5c20.9-29.9,14-76.3-41.9-91.5v10c45,12.4,51.4,49.8,35.4,74.7c-8.3-7.5-19.7-13.7-34.4-17.7v10
		c12.4,3.4,21.8,8.7,28.7,15.2c-7.3,8-17.3,13.8-29.7,15.6v9.7c14.5-2.2,26.8-9.1,35.8-18.5c11.9,16.3,10.7,37,0.6,52.8
		c-7.5,11.7-19,18.5-35.4,23v9.7c18-2.7,32.5-12.6,41.7-25.6C598.6,321,600.4,294,583.9,273.5z"/>
	<rect id="XMLID_2_" x="332" y="182.1" width="9.6" height="184.3"/>
	
		<rect id="XMLID_7_" x="365" y="173.1" transform="matrix(0.7393 -0.6734 0.6734 0.7393 -53.0902 307.5825)" width="11.4" height="98.6"/>
	
		<rect id="XMLID_8_" x="433" y="170.1" transform="matrix(-0.6734 -0.7393 0.7393 -0.6734 571.9673 691.4111)" width="11.4" height="98.6"/>
	
		<rect id="XMLID_10_" x="429.5" y="205.5" transform="matrix(-0.6734 -0.7393 0.7393 -0.6734 538.0044 752.3855)" width="11.4" height="103.8"/>
	<rect id="XMLID_11_" x="471" y="182" class="st1" width="8.4" height="8.3"/>
</g>
</svg>
