<?xml version="1.0" encoding="utf-8"?>
<!-- Generator: Adobe Illustrator 19.0.0, SVG Export Plug-In . SVG Version: 6.00 Build 0)  -->
<svg version="1.1" id="Layer_1" xmlns="http://www.w3.org/2000/svg" xmlns:xlink="http://www.w3.org/1999/xlink" x="0px" y="0px"
	 viewBox="0 0 270 210" style="enable-background:new 0 0 270 210;" xml:space="preserve">
<style type="text/css">
	.st0{fill:none;stroke:#000000;stroke-miterlimit:10;}
	.st1{stroke:#000000;stroke-width:0.25;stroke-miterlimit:10;}
</style>
<g id="Layer_2">
	<path id="XMLID_13_" class="st0" d="M202,12.5"/>
	<rect id="XMLID_9_" x="140.3" y="56.2" width="9.6" height="148.2"/>
	<rect id="XMLID_1_" x="160.8" y="20.1" width="9.6" height="184.3"/>
	<rect id="XMLID_3_" x="170.4" y="194.7" class="st1" width="43.6" height="9.7"/>
	<rect id="XMLID_4_" x="170.4" y="20.1" class="st1" width="43.3" height="9.7"/>
	<rect id="XMLID_5_" x="170.4" y="127.7" width="43.3" height="9.7"/>
	<rect id="XMLID_6_" x="170.4" y="87" width="43.6" height="10.1"/>
	<line id="XMLID_12_" class="st0" x1="72" y1="3.5" x2="72" y2="3.5"/>
	<line id="XMLID_15_" class="st0" x1="240" y1="38.6" x2="240" y2="38.6"/>
	<line id="XMLID_17_" class="st0" x1="264.1" y1="153" x2="264.1" y2="153"/>
	<path id="XMLID_14_" d="M254.9,111.5c20.9-29.9,14-76.3-41.9-91.5v10c45,12.4,51.4,49.8,35.4,74.7C240.1,97.2,228.7,91,214,87v10
		c12.4,3.4,21.8,8.7,28.7,15.2c-7.3,8-17.3,13.8-29.7,15.6v9.7c14.5-2.2,26.8-9.1,35.8-18.5c11.9,16.3,10.7,37,0.6,52.8
		c-7.5,11.7-19,18.5-35.4,23v9.7c18-2.7,32.5-12.6,41.7-25.6C269.6,159,271.4,132,254.9,111.5z"/>
	<rect id="XMLID_2_" x="3" y="20.1" width="9.6" height="184.3"/>
	
		<rect id="XMLID_7_" x="36" y="11.1" transform="matrix(-0.7393 0.6734 -0.6734 -0.7393 113.2396 76.9046)" width="11.4" height="98.6"/>
	
		<rect id="XMLID_8_" x="104" y="8" transform="matrix(0.6734 0.7393 -0.7393 0.6734 78.2332 -62.4096)" width="11.4" height="98.6"/>
	
		<rect id="XMLID_10_" x="100.5" y="43.4" transform="matrix(0.6734 0.7393 -0.7393 0.6734 105.1588 -47.4105)" width="11.4" height="103.8"/>
	<rect id="XMLID_11_" x="142" y="20" class="st1" width="8.4" height="8.3"/>
</g>
</svg>
